<?xml version="1.0"?>
<svg xmlns="http://www.w3.org/2000/svg" height="512px" viewBox="0 0 64 64" width="512px" class=""><g><g id="filled_color_copy" data-name="filled color copy"><path d="m47 11v46c0 2.21-6.72 4-15 4s-15-1.79-15-4v-46c0 2.21 6.72 4 15 4s15-1.79 15-4z" fill="#454545" data-original="#454545" class="" data-old_color="#454545" style="fill:#149E88"/><path d="m40 14.379a48.9 48.9 0 0 1 -8 .621c-8.28 0-15-1.79-15-4v46c0 2.21 6.72 4 15 4a48.9 48.9 0 0 0 8-.621z" fill="#6f6f6f" data-original="#6F6F6F" class="active-path" data-old_color="#6f6f6f" style="fill:#1ADABB"/><path d="m24 5c0 1.1 3.58 2 8 2s8-.9 8-2v4c0 1.1-3.58 2-8 2s-8-.9-8-2z" fill="#6f6f6f" data-original="#6F6F6F" class="active-path" data-old_color="#6f6f6f" style="fill:#1ADABB"/><ellipse cx="32" cy="5" fill="#d3d3d3" rx="8" ry="2" data-original="#D3D3D3" class=""/><path d="m40 9v-1.38c4.21.7 7 1.96 7 3.38 0 2.21-6.72 4-15 4s-15-1.79-15-4c0-1.42 2.79-2.68 7-3.38v1.38c0 1.1 3.58 2 8 2s8-.9 8-2z" fill="#d3d3d3" data-original="#D3D3D3" class=""/><path d="m35 30 4-9h-8l-5 11h5l-4 9h4l-4 12 11-14h-3l4-9z" fill="#ffca3b" data-original="#FFCA3B" class=""/><path d="m32 2c-1.5 0-9 .145-9 3v1.784c-3.37.645-7 1.88-7 4.216v46c0 3.436 8.294 5 16 5s16-1.564 16-5v-46c0-2.336-3.63-3.571-7-4.216v-1.784c0-2.855-7.5-3-9-3zm7 6.816c-.474.428-2.919 1.184-7 1.184s-6.526-.756-7-1.184v-1.776a23.285 23.285 0 0 0 7 .96 23.285 23.285 0 0 0 7-.96zm-7-4.816a17.475 17.475 0 0 1 6.724 1 17.475 17.475 0 0 1 -6.724 1 17.475 17.475 0 0 1 -6.724-1 17.475 17.475 0 0 1 6.724-1zm0 56c-9.237 0-14-2.1-14-3v-43.415c2.921 1.643 8.6 2.415 14 2.415s11.079-.772 14-2.415v43.415c0 .9-4.763 3-14 3zm14-49c0 .9-4.763 3-14 3s-14-2.1-14-3c0-.333 1.223-1.4 5-2.175v.175c0 2.855 7.5 3 9 3s9-.145 9-3v-.175c3.777.775 5 1.842 5 2.175z" data-original="#000000" class="" style="fill:#5C5C5C" data-old_color="#000000"/><path d="m39.838 20.455a1 1 0 0 0 -.838-.455h-8a1 1 0 0 0 -.91.586l-5 11a1 1 0 0 0 .91 1.414h3.461l-3.375 7.594a1 1 0 0 0 .914 1.406h2.613l-3.562 10.684a1 1 0 0 0 1.735.934l11-14a1 1 0 0 0 -.786-1.618h-1.461l3.375-7.594a1 1 0 0 0 -.914-1.406h-2.461l3.375-7.594a1 1 0 0 0 -.076-.951zm-5.752 9.139a1 1 0 0 0 .914 1.406h2.461l-3.375 7.594a1 1 0 0 0 .914 1.406h.942l-6.174 7.858 2.181-6.542a1 1 0 0 0 -.949-1.316h-2.461l3.375-7.594a1 1 0 0 0 -.914-1.406h-3.447l4.091-9h5.817z" data-original="#000000" class="" style="fill:#5C5C5C" data-old_color="#000000"/></g></g> </svg>
