<svg data-v-6c1f8e34="" viewBox="0 0 144 26" fill="none" xmlns="http://www.w3.org/2000/svg" class=""><path data-v-6c1f8e34="" d="M17.269 10.172h6.898c.05-.269.084-.655.084-1.075C24.251 3.81 20.021 0 14.163 0 5.536 0 .013 5.824.013 14.905c0 6.16 4.23 10.155 10.726 10.155 6.546 0 11.515-3.894 12.354-9.685h-6.899c-.705 2.4-2.601 3.894-4.951 3.894-2.417 0-3.894-1.83-3.894-4.8 0-5.12 2.517-8.745 6.076-8.745 2.182 0 3.86 1.645 3.86 3.776 0 .504 0 .571-.016.672zM47.17 24.64L52.325.42h-7.285l-1.98 9.248h-8.192L36.848.42h-7.285L24.41 24.64h7.285l2.014-9.433H41.9l-2.014 9.433h7.285zM65.978 6.362h.151l.37 8.442h-4.667l4.146-8.442zm.957 18.278h7.301L71.752.42h-8.93L49.495 24.64h7.503l2.367-4.817h7.352l.218 4.817zM76.46 17.507c.017 4.784 3.86 7.553 10.39 7.553 6.395 0 10.759-3.172 10.759-8.275 0-3.491-1.88-5.304-6.227-6.563L88.73 9.45c-1.947-.57-2.619-1.242-2.619-2.216 0-1.141 1.209-1.98 3.072-1.98 2.014 0 3.374.956 3.424 2.4h6.496C99.069 2.854 95.259 0 89.015 0 83.14 0 78.877 3.223 78.877 8.158c0 3.306 2.148 5.488 6.194 6.713l2.534.773c2.283.705 2.736 1.225 2.736 2.115 0 1.208-1.292 2.03-3.357 2.03-1.997 0-3.592-.956-3.793-2.282H76.46zM117.574 19h-9.97l.839-3.91h9.333l1.091-5.103h-9.333l.823-3.928h9.953l1.209-5.64h-17.07L99.296 24.64h17.087l1.191-5.64zM129.785 11.649l1.293-5.976h2.719c1.964 0 3.038.856 3.038 2.568 0 1.981-1.494 3.408-3.877 3.408h-3.173zM125.069.419l-5.153 24.221h7.116l1.729-8.124h2.501l2.283 8.124h7.419l-2.686-8.795c3.693-1.444 5.691-4.767 5.691-8.191 0-4.146-2.904-7.234-8.007-7.234h-10.893z"></path></svg>