<svg viewBox="0 0 600 256"><g transform="matrix(1.68953,0,0,1.11099,-207.759,-74.913)"><g transform="matrix(2.39659,0,0,3.64461,0,-98.7479)"><path d="M74 54C65.5 67.8 55.4 86.6 52.6 95 50.5 101 51.5 104.1 53.3 105.6 54 106.2 54.6 106.2 55 105.2 57.7 98.8 61.3 91.6 64.9 84.5 70.4 83.1 77.8 81.7 82.6 81.8 83.8 81.8 83.9 81.2 83.7 80.3 82.8 77.5 80.4 75.5 75.6 75.7 73.9 75.8 71.7 76 69.2 76.5 73.9 67.9 78.4 60.1 81.7 54.6 87.6 53.8 94.3 51.8 101.5 51.9 102.8 51.9 103 51.3 102.7 50.5 101.4 47.5 98.9 45.6 94.8 45.6 89.4 45.6 79.2 48.4 71.3 48 70.3 48 70 48.4 70.2 49.1 70.7 51.1 71.8 53 74 54Z"/></g><g transform="matrix(2.39659,0,0,3.64461,0,-98.7479)"><path d="M98.3 74.2C100.7 68.2 101.5 62.6 98.5 62.7 95 62.8 86.6 74.1 92.1 77.7 88.6 82.7 82.1 91.8 79.9 96 77.3 100.9 77.3 105.3 80.1 108.2 81 109.1 81.5 108.6 81.7 107.7 83.6 99 92.8 85.3 96.4 78.6 99.3 78.6 103.4 77.8 107.7 75 103.8 79.4 98.2 86.2 96.1 92.5 93.7 99.7 96.5 106.1 103.4 106.4 108.5 106.6 114.1 102.5 116.3 97 117.4 94.4 117.3 92.1 116.8 91 116.4 90.2 115.8 90.3 115.4 91.1 112.4 98 107.8 104 104 103.8 101.2 103.7 100.1 99.9 101.6 94.9 103.1 89.9 107.8 83.9 112.2 79 115 75.8 112.6 71.6 110.8 69.6 110.2 68.8 109.4 69 108.2 69.8 104.7 72.3 101.4 73.8 98.3 74.2Z"/></g><g transform="matrix(2.39659,0,0,3.64461,0,-98.7479)"><path d="M199.3 70C199.8 67.6 199.1 66.3 197.8 66.6 195.9 67 189.4 73.2 187.7 87.6 182.7 96.7 177 103.1 173.4 103.1 170.7 103.1 170.5 99.6 173.1 94.3 175.5 89.3 180.1 81.9 182.2 77.7 184.6 72.9 183.9 68.6 182.4 67 181.7 66 180.9 66.3 180 67.6 177.1 71.7 174.3 78.2 168.1 88 163 96.4 159.4 102.6 155.7 102.7 153.5 102.8 153.4 99.5 155.4 94.8 157.3 90.2 159.6 86 163 80.3 166.5 74.7 167 70.6 164.8 67.5 164.1 66.6 163.1 66.4 162.4 67.6 161.3 69.1 159.9 71.2 158.9 72.8 155.6 78.2 150.4 82.6 144.8 82.7 144.9 82.1 145 81.4 145 80.8 145.5 73.7 142.6 73.1 140.5 70.3 138.5 67.5 136.8 66.8 134 67 128.2 67.4 122.2 72.8 118.6 79.4 114.4 87.1 112.8 95.3 117.2 101 121 106.1 125.7 106.2 129.2 105.1 136.2 102.9 142 93.4 144.1 85.3 146.9 85.4 149.9 85 152.8 83.5 151.2 86.7 150.1 89.3 149.2 91.9 146.8 98.9 147.9 105 153.7 105.5 158.3 105.9 162.3 102 165.4 98.2 165.1 102.2 167.5 105.9 171.5 106 177.7 106.1 184.5 98.8 191.1 88 197.2 78 198.7 73.8 199.3 70ZM138.8 80.8C136.9 79.2 136.1 76.8 136.5 74.3 136.8 71.5 139 70.9 139.3 73.9 139.5 75.6 139.5 78 138.8 80.8ZM138.1 83.5C137.2 85.9 136.1 88.5 134.5 91.4 129.9 100.1 124 103.5 121.4 101.3 118.9 99.2 120.3 90.4 124.4 83.2 126.4 79.6 129.2 76.2 131.8 74.1 131.8 78 134.8 81.8 138.1 83.5Z"/></g></g></svg>