<?xml version="1.0"?>
<svg xmlns="http://www.w3.org/2000/svg" xmlns:xlink="http://www.w3.org/1999/xlink" version="1.1" id="Capa_1" x="0px" y="0px" viewBox="0 0 504.977 504.977" style="enable-background:new 0 0 504.977 504.977;" xml:space="preserve" class=""><g><g>
	<path style="fill:#B6C8CC" d="M84.893,296.792h71.959v-164.65c0-54.949-53.207-78.065-53.207-78.065s-53.209,23.116-53.209,78.065   v172.745C60.814,299.716,72.51,296.792,84.893,296.792z" data-original="#FABA45" class="" data-old_color="#AF9D7A"/>
	<path style="fill:#12D8B7" d="M179.238,451.577H84.893c-42.742,0-77.393-34.648-77.393-77.393l0,0   c0-42.743,34.65-77.393,77.393-77.393h335.191c42.744,0,77.393,34.65,77.393,77.393l0,0c0,42.744-34.648,77.393-77.393,77.393   H199.24" data-original="#E95B2D" class="active-path" data-old_color="#FCB853"/>
	<circle style="fill:#B6C8CC" cx="103.644" cy="374.184" r="21.81" data-original="#FABA45" class="" data-old_color="#AF9D7A"/>
	<path style="fill:#B6C8CC" d="M313.385,103.422L156.852,259.956v36.836h85.211l71.322-71.322   C347.086,191.765,347.086,137.126,313.385,103.422z" data-original="#FABA45" class="" data-old_color="#AF9D7A"/>
	<path style="fill:#B5B1AB" d="M420.084,289.292H260.169l58.52-58.518c36.569-36.573,36.569-96.082,0-132.655l-5.304-5.304   L164.352,241.849V132.142c0-24.572-10.006-47.075-28.936-65.074c-14.102-13.408-28.19-19.612-28.783-19.87l-2.988-1.298   l-2.988,1.298c-0.593,0.258-14.682,6.462-28.784,19.87c-18.931,17.999-28.937,40.501-28.937,65.074v168.29   C17.318,315.062,0,342.63,0,374.184c0,46.81,38.083,84.893,84.893,84.893h94.346v-15H84.893C46.354,444.077,15,412.723,15,374.184   c0-27.672,16.165-51.637,39.547-62.954c0.052-0.025,0.102-0.049,0.153-0.074c7.083-3.406,14.823-5.653,22.976-6.493   c0.058-0.006,0.115-0.012,0.173-0.018c1.108-0.111,2.224-0.196,3.346-0.255c0.105-0.005,0.212-0.008,0.317-0.013   c1.121-0.054,2.247-0.086,3.381-0.086h64.459h15h80.817h174.915c38.539,0,69.893,31.354,69.893,69.893   c0,38.539-31.353,69.893-69.893,69.893H199.24v15h220.844c46.81,0,84.893-38.083,84.893-84.893   C504.977,327.374,466.894,289.292,420.084,289.292z M131.576,289.292v-22.679h-15v22.679H84.893c-1.351,0-2.693,0.04-4.031,0.103   c-0.342,0.016-0.681,0.041-1.021,0.061c-1.049,0.062-2.096,0.141-3.137,0.239c-0.302,0.029-0.602,0.059-0.902,0.091   c-1.215,0.129-2.425,0.282-3.629,0.463c-0.087,0.013-0.175,0.023-0.262,0.037c-4.083,0.626-8.099,1.555-12.039,2.775   c-0.141,0.044-0.281,0.088-0.422,0.132c-0.504,0.159-1.012,0.306-1.514,0.475V132.142c0-20.493,8.047-38.616,23.918-53.865   c8.607-8.269,17.35-13.468,21.791-15.83c4.446,2.365,13.186,7.564,21.79,15.83c15.87,15.248,23.917,33.372,23.917,53.865v124.708   v32.442H131.576z M164.352,289.292v-26.229l148.782-148.783c25.564,30.926,23.88,76.952-5.053,105.888l-69.125,69.125H164.352z" data-original="#0F2639" class=""/>
	<path style="fill:#0F2639" d="M74.334,374.184c0,16.161,13.148,29.309,29.311,29.309c16.161,0,29.308-13.148,29.308-29.309   c0-16.162-13.147-29.311-29.308-29.311C87.482,344.873,74.334,358.022,74.334,374.184z M117.953,374.184   c0,7.89-6.419,14.309-14.309,14.309c-7.891,0-14.311-6.419-14.311-14.309c0-7.891,6.42-14.311,14.311-14.311   C111.534,359.873,117.953,366.293,117.953,374.184z" data-original="#0F2639" class=""/>
	<rect x="116.576" y="123.771" style="fill:#B5B1AB" width="15" height="112.839" data-original="#0F2639" class=""/>
	<rect x="198.58" y="414.074" style="fill:#B5B1AB" width="227.354" height="15" data-original="#0F2639" class=""/>
</g></g> </svg>
