<?xml version="1.0" encoding="UTF-8" standalone="no"?><!-- Generator: Gravit.io --><svg xmlns="http://www.w3.org/2000/svg" xmlns:xlink="http://www.w3.org/1999/xlink" style="isolation:isolate" viewBox="0 0 280 90" width="280pt" height="90pt"><defs><clipPath id="_clipPath_Avs1YGG2F6OdPdRPu4HaDdJAcr1d4y81"><rect x="0" y="0" width="280" height="90"/></clipPath></defs><g clip-path="url(#_clipPath_Avs1YGG2F6OdPdRPu4HaDdJAcr1d4y81)"><clipPath id="_clipPath_h1G1EhbJHKAI6ftCz5IDYJkiDRXznayM"><rect x="0" y="0" width="280" height="90" transform="matrix(1,0,0,1,0,0)" fill="rgb(255,255,255)"/></clipPath><g clip-path="url(#_clipPath_h1G1EhbJHKAI6ftCz5IDYJkiDRXznayM)"><path d=" M 0 90 L 280 90 L 280 0 L 0 0 L 0 90 Z " fill="rgb(26,26,26)"/><clipPath id="_clipPath_h46PDCJCes9w6ZL58yWjxeClPy371WQc"><path d=" M 0 90 L 280 90 L 280 0 L 0 0 L 0 90 Z " fill="rgb(26,26,26)"/></clipPath><g clip-path="url(#_clipPath_h46PDCJCes9w6ZL58yWjxeClPy371WQc)"><path d=" M 125.251 52.522 C 127.723 54.993 130.825 56.203 134.453 56.203 C 136.609 56.203 138.554 55.73 140.289 54.731 L 135.137 48.632 L 139.553 44.897 L 144.759 51.05 C 146.442 48.894 147.283 46.318 147.283 43.268 C 147.283 39.64 146.021 36.538 143.55 34.013 C 141.078 31.49 138.081 30.227 134.453 30.227 C 130.825 30.227 127.723 31.49 125.251 34.013 C 122.779 36.538 121.518 39.64 121.518 43.268 C 121.518 46.949 122.779 50.051 125.251 52.522 Z  M 120.676 29.755 C 124.462 26.126 129.036 24.285 134.453 24.285 C 139.869 24.285 144.444 26.126 148.177 29.755 C 151.911 33.382 153.803 37.905 153.803 43.268 C 153.803 48.053 152.173 52.206 148.913 55.73 L 152.489 60.041 L 148.072 63.722 L 144.391 59.357 C 141.604 61.198 138.292 62.145 134.453 62.145 C 129.036 62.145 124.462 60.356 120.676 56.729 C 116.943 53.101 115.05 48.578 115.05 43.268 C 115.05 37.905 116.943 33.382 120.676 29.755 Z " fill="rgb(0,198,224)"/><path d=" M 158.637 35.065 L 164.946 35.065 L 164.946 53.68 C 164.946 55.73 165.368 56.466 166.787 56.466 C 167.26 56.466 167.628 56.414 167.891 56.362 L 167.891 61.672 C 167.26 61.935 166.208 62.093 164.736 62.093 C 160.688 62.093 158.637 59.832 158.637 55.363 L 158.637 35.065 Z  M 158.006 28.23 C 158.006 26.127 159.689 24.496 161.792 24.496 C 163.842 24.496 165.525 26.127 165.525 28.23 C 165.525 30.333 163.842 31.963 161.792 31.963 C 159.689 31.963 158.006 30.333 158.006 28.23 Z " fill="rgb(0,198,224)"/><path d=" M 171.569 61.566 L 171.569 24.916 L 177.827 24.916 L 177.827 46.317 L 187.607 35.064 L 194.863 35.064 L 184.504 46.895 L 195.968 61.566 L 188.816 61.566 L 180.455 50.892 L 177.827 53.836 L 177.827 61.566 L 171.569 61.566 Z " fill="rgb(0,198,224)"/><path d=" M 204.535 40.113 C 202.484 42.27 201.485 45.004 201.485 48.317 C 201.485 51.628 202.484 54.416 204.535 56.571 C 206.586 58.728 209.163 59.779 212.265 59.779 C 215.367 59.779 217.891 58.674 219.942 56.519 C 221.992 54.31 222.992 51.576 222.992 48.317 C 222.992 45.056 221.94 42.322 219.889 40.165 C 217.839 37.958 215.314 36.854 212.265 36.854 C 209.163 36.854 206.586 37.958 204.535 40.113 Z  M 199.119 71.715 L 199.119 35.065 L 201.748 35.065 L 201.748 40.587 C 202.38 38.852 203.641 37.379 205.534 36.17 C 207.48 34.96 209.688 34.382 212.265 34.382 C 215.998 34.382 219.153 35.696 221.729 38.378 C 224.306 41.06 225.621 44.373 225.621 48.317 C 225.621 52.259 224.306 55.572 221.729 58.254 C 219.153 60.936 215.998 62.25 212.265 62.25 C 209.688 62.25 207.48 61.672 205.534 60.463 C 203.641 59.253 202.38 57.781 201.748 56.046 L 201.748 71.715 L 199.119 71.715 Z " fill="rgb(0,198,224)"/><path d=" M 230.929 35.065 L 233.558 35.065 L 233.558 56.782 C 233.558 58.833 234.084 59.673 235.714 59.673 C 236.187 59.673 236.713 59.621 237.186 59.569 L 237.186 61.777 C 236.608 61.987 235.924 62.093 235.03 62.093 C 232.296 62.093 230.929 60.463 230.929 57.255 L 230.929 35.065 Z  M 230.877 29.281 C 230.193 28.598 230.193 27.336 230.877 26.652 C 232.559 24.76 235.398 27.704 233.558 29.281 C 232.874 29.965 231.665 29.965 230.877 29.281 Z " fill="rgb(0,198,224)"/><path d=" M 239.236 61.566 L 249.173 47.526 L 240.077 35.064 L 243.074 35.064 L 250.645 45.423 L 258.27 35.064 L 261.267 35.064 L 252.171 47.474 L 262.162 61.566 L 259.164 61.566 L 250.699 49.63 L 242.232 61.566 L 239.236 61.566 Z " fill="rgb(0,198,224)"/><path d=" M 68.651 76.906 C 68.225 76.906 67.805 76.751 67.476 76.454 L 55.664 65.766 C 55.297 65.434 55.088 64.963 55.088 64.468 L 55.088 17.193 L 21.338 27.272 L 21.338 56.177 L 45.041 49.052 L 41.238 46.253 C 40.46 45.68 40.293 44.585 40.866 43.806 C 41.44 43.028 42.534 42.863 43.313 43.434 L 49.938 48.309 C 50.472 48.702 50.738 49.363 50.625 50.016 C 50.512 50.67 50.039 51.203 49.404 51.394 L 20.092 60.207 C 19.562 60.365 18.988 60.265 18.544 59.935 C 18.1 59.605 17.838 59.084 17.838 58.531 L 17.838 25.968 C 17.838 25.195 18.346 24.513 19.087 24.292 L 56.337 13.167 C 56.867 13.009 57.44 13.11 57.883 13.44 C 58.327 13.77 58.588 14.291 58.588 14.843 L 58.588 63.692 L 66.901 71.213 L 66.901 36.093 C 66.901 35.32 67.408 34.639 68.149 34.417 L 103.024 23.979 C 103.554 23.823 104.127 23.922 104.57 24.252 C 105.014 24.583 105.276 25.103 105.276 25.656 L 105.276 55.594 C 105.276 56.358 104.78 57.033 104.051 57.263 L 78.426 65.325 C 77.504 65.615 76.522 65.103 76.231 64.181 C 75.941 63.26 76.453 62.277 77.375 61.987 L 101.776 54.309 L 101.776 28.007 L 70.401 37.396 L 70.401 75.156 C 70.401 75.848 69.993 76.475 69.36 76.756 C 69.132 76.857 68.891 76.906 68.651 76.906 Z " fill="rgb(255,255,255)"/></g></g></g></svg>