<?xml version="1.0"?>
<svg xmlns="http://www.w3.org/2000/svg" xmlns:xlink="http://www.w3.org/1999/xlink" version="1.1" id="Layer_1" x="0px" y="0px" viewBox="0 0 512 512"	 style="enable-background:new 0 0 512 512;" xml:space="preserve" class=""><g><g>
	<path style="fill:#12D8B7" d="M345.116,0c-4.586,0-8.303,3.717-8.303,8.303v75.278h16.605V8.303   C353.418,3.717,349.702,0,345.116,0z" data-original="#41D4D3" class="" data-old_color="#0EAD94"/>
	<path style="fill:#12D8B7" d="M166.884,0c-4.585,0-8.303,3.717-8.303,8.303v75.278h16.605V8.303C175.187,3.717,171.47,0,166.884,0   z" data-original="#41D4D3" class="" data-old_color="#0EAD94"/>
</g><g>
	<polygon style="fill:#0EAD94" points="386.629,197.604 122.603,197.604 136.441,180.999 375.559,180.999  " data-original="#00BAB9" class="" data-old_color="#0EAE95"/>
	<polygon style="fill:#0EAD94" points="228.324,320.484 228.324,410.707 204.523,421.777 180.722,410.707 180.722,320.484  " data-original="#00BAB9" class="" data-old_color="#0EAE95"/>
	<polygon style="fill:#0EAD94" points="331.278,320.484 331.278,410.707 307.477,421.777 283.676,410.707 283.676,320.484  " data-original="#00BAB9" class="" data-old_color="#0EAE95"/>
	<path style="fill:#0EAD94" d="M320.208,50.37H191.792c-18.343,0-33.211,14.867-33.211,33.211s14.867,33.211,33.211,33.211h128.415   c18.343,0,33.211-14.867,33.211-33.211S338.551,50.37,320.208,50.37z" data-original="#00BAB9" class="" data-old_color="#0EAE95"/>
</g><g>
	<path style="fill:#B6C8CC" d="M331.278,169.929H180.722c-6.089,0-11.07,4.982-11.07,11.07v150.556   c0,6.089,4.982,11.07,11.07,11.07h150.556c6.089,0,11.07-4.982,11.07-11.07V180.999   C342.348,174.91,337.366,169.929,331.278,169.929z" data-original="#CFF2F2" class="" data-old_color="#CFF2F2"/>
	<path style="fill:#B6C8CC" d="M309.137,30.443H202.863c-6.089,0-11.07,4.982-11.07,11.07v84.134c0,6.089,4.982,11.07,11.07,11.07   h106.275c6.089,0,11.07-4.982,11.07-11.07V41.514C320.208,35.425,315.226,30.443,309.137,30.443z" data-original="#CFF2F2" class="" data-old_color="#CFF2F2"/>
</g><g>
	<path style="fill:#12D8B7" d="M389.95,180.999h-14.391v161.626h47.602V214.21C423.161,195.944,408.216,180.999,389.95,180.999z" data-original="#80E2E2" class="" data-old_color="#80E2E2"/>
	<path style="fill:#12D8B7" d="M122.05,180.999c-18.266,0-33.211,14.945-33.211,33.211v128.415h47.602V180.999H122.05z" data-original="#80E2E2" class="" data-old_color="#80E2E2"/>
	<rect x="180.722" y="410.707" style="fill:#12D8B7" width="47.602" height="79.152" data-original="#80E2E2" class="" data-old_color="#80E2E2"/>
	<rect x="283.676" y="410.707" style="fill:#12D8B7" width="47.602" height="79.152" data-original="#80E2E2" class="" data-old_color="#80E2E2"/>
</g><g>
	<path style="fill:#0EAD94" d="M331.278,478.789h-47.602c-6.089,0-11.07,4.982-11.07,11.07V512h69.743v-22.141   C342.348,483.771,337.366,478.789,331.278,478.789z" data-original="#00BAB9" class="" data-old_color="#0EAE95"/>
	<path style="fill:#0EAD94" d="M228.324,478.789c6.089,0,11.07,4.982,11.07,11.07V512h-69.743v-22.141   c0-6.089,4.982-11.07,11.07-11.07H228.324z" data-original="#00BAB9" class="" data-old_color="#0EAE95"/>
</g><g>
	<path style="fill:#DB8B28" d="M206.184,255.723c-4.585,0-8.303-3.717-8.303-8.303v-44.281c0-4.585,3.717-8.303,8.303-8.303   c4.585,0,8.303,3.717,8.303,8.303v44.281C214.486,252.006,210.769,255.723,206.184,255.723z" data-original="#FD6144" class="active-path" data-old_color="#FCB853"/>
	<path style="fill:#DB8B28" d="M239.395,255.723c-4.585,0-8.303-3.717-8.303-8.303v-44.281c0-4.585,3.717-8.303,8.303-8.303   c4.585,0,8.303,3.717,8.303,8.303v44.281C247.697,252.006,243.98,255.723,239.395,255.723z" data-original="#FD6144" class="active-path" data-old_color="#FCB853"/>
	<path style="fill:#DB8B28" d="M272.605,255.723c-4.586,0-8.303-3.717-8.303-8.303v-44.281c0-4.585,3.716-8.303,8.303-8.303   s8.303,3.717,8.303,8.303v44.281C280.908,252.006,277.192,255.723,272.605,255.723z" data-original="#FD6144" class="active-path" data-old_color="#FCB853"/>
	<path style="fill:#DB8B28" d="M305.816,255.723c-4.586,0-8.303-3.717-8.303-8.303v-44.281c0-4.585,3.716-8.303,8.303-8.303   s8.303,3.717,8.303,8.303v44.281C314.119,252.006,310.403,255.723,305.816,255.723z" data-original="#FD6144" class="active-path" data-old_color="#FCB853"/>
</g><g>
	<path style="fill:#0EAD94" d="M136.441,386.934c-4.585,0-8.303-3.717-8.303-8.303v-12.205c0-8.546-6.952-15.498-15.498-15.498   s-15.498,6.952-15.498,15.498v12.205c0,4.585-3.717,8.303-8.303,8.303s-8.303-3.717-8.303-8.303v-12.205   c0-17.702,14.401-32.104,32.104-32.104s32.104,14.401,32.104,32.104v12.205C144.744,383.216,141.026,386.934,136.441,386.934z" data-original="#00BAB9" class="" data-old_color="#0EAE95"/>
	<path style="fill:#0EAD94" d="M423.161,386.934c-4.586,0-8.303-3.717-8.303-8.303v-12.205c0-8.546-6.952-15.498-15.498-15.498   c-8.546,0-15.498,6.952-15.498,15.498v12.205c0,4.585-3.716,8.303-8.303,8.303s-8.303-3.717-8.303-8.303v-12.205   c0-17.702,14.402-32.104,32.104-32.104s32.104,14.401,32.104,32.104v12.205C431.464,383.216,427.747,386.934,423.161,386.934z" data-original="#00BAB9" class="" data-old_color="#0EAE95"/>
</g></g> </svg>
