<svg version="1.1" xmlns="http://www.w3.org/2000/svg" x="0" y="0" viewBox="0 0 600 120" xml:space="preserve"><polygon fill="#2B7A77" points="63.8 90.8 100 51.3 84 39.5 43.5 82.2 "/><polygon fill="#2B7A77" points="2.9 99.8 43.5 19 63.8 29.2 23.2 111.3 "/><path fill="#3AAFA9" d="M116.2 64.3c4.6-2.3 4.6-6.2 0-8.5L84 39.5v41L116.2 64.3z"/><polygon fill="#3AAFA9" points="43.5 101 63.8 90.8 63.8 29.2 43.5 19 "/><path fill="#3AAFA9" d="M11.4 2.7C6.7 0.4 2.9 1.9 2.9 6.2v107.7c0 4.2 3.8 5.8 8.4 3.4l11.8-6V8.7L11.4 2.7z"/><polygon fill="#17242A" points="159.7 88.8 159.7 39.9 176.9 39.9 176.9 31.6 134.2 31.6 134.2 39.9 151.5 39.9 151.5 88.8 "/><path fill="#17242A" d="M216.2 88.5h8.8l-22.9-57.7h-6l-22.9 57.7h8.9c1.8-4.7 4.6-11.6 6.8-16.8h20.4L216.2 88.5zM199.2 43.9l7 20.1H192L199.2 43.9zM268.3 46c-1.5-10.4-10.6-15-19.4-15 -6.6 0-13.4 2.6-17.2 7.6 -2.4 3.2-3.4 7-3.1 10.8V49.3c0.9 11.9 11.3 13.8 20.2 14.7 5.7 0.6 11.6 1.3 12.5 5.6 0.2 0.7 0.2 1.4 0.2 2 0 5.9-6.7 9.3-12.8 9.3 -5.3 0-11.7-2.8-12.3-8.1v0.3l-0.1-1.2 -8.3 0.2 0.1 1.6c1.1 10.2 11.7 15.4 20.5 15.4 10.3 0 21.2-6.3 21.2-17.3 0-1.1-0.2-2.5-0.4-3.7 -2.2-9.1-11.9-11.1-19.7-12.1 -6.1-0.6-12.5-1.3-12.9-7.2 -0.2-1.9 0.2-3.8 1.4-5.3 2.3-2.9 6.5-4.2 10.3-4.3 5-0.1 10.5 2.1 11.6 7.2L268.3 46zM288 62.2l21.7 26.4h10.7l-24-28.6 21.7-28.2h-10.3l-19.9 26.4V62.2zM278.3 31.6v56.9h8.1V31.6H278.3zM328.7 60.7h26v-1.3h-26V32.9h29.5v-1.2h-30.7c0 19 0 37.9 0 56.9h1.2V60.7zM420.7 88.5V34.2l37.6 54.4h1.3V31.6h-1.2v54.7l-37.8-54.7 -1.1-0.1v57.1H420.7zM387.6 89.2c9.4 0 19.9-5.5 19.9-16V31.6h-1.3v41.4c0 9.9-9.9 14.8-18.6 14.8 -8.7 0-18.6-4.9-18.6-14.7V31.6h-1.3v41.4C367.6 83.6 378.1 89.2 387.6 89.2z"/><polygon fill="#17242A" points="472.6 88.5 472.6 34.2 510.2 88.5 511.5 88.5 511.5 31.6 510.3 31.6 510.3 86.3 472.5 31.6 471.3 31.5 471.3 88.5 "/><polygon fill="#17242A" points="524.5 60.7 553.9 60.7 553.9 59.4 524.5 59.4 524.5 32.9 554.6 32.9 554.6 31.6 523.2 31.6 523.2 88.5 523.3 88.5 554.7 88.5 554.7 87.3 524.5 87.3 "/><path fill="#17242A" d="M566.1 31.6h-1.3v56.9c10.7 0 21.2 0 31.9 0v-1.3h-30.6V31.6z"/></svg>