<?xml version="1.0"?>
<svg xmlns="http://www.w3.org/2000/svg" xmlns:xlink="http://www.w3.org/1999/xlink" version="1.1" id="Capa_1" x="0px" y="0px" viewBox="0 0 58 58" style="enable-background:new 0 0 58 58;" xml:space="preserve" width="512px" height="512px" class=""><g><g>
	<rect x="2" y="50" style="fill:#5E5F62" width="8" height="4" data-original="#5E5F62" class="active-path" data-old_color="#FCB853"/>
	<rect x="48" y="50" style="fill:#5E5F62" width="8" height="4" data-original="#5E5F62" class="active-path" data-old_color="#FCB853"/>
	<rect y="4" style="fill:#B6C8CC" width="58" height="46" data-original="#B6C8CC" class="" data-old_color="#DB8B28"/>
	<path style="fill:#E3E9EC;" d="M52.992,46H5.008C4.451,46,4,45.549,4,44.992V9.008C4,8.451,4.451,8,5.008,8h47.984   C53.549,8,54,8.451,54,9.008v35.984C54,45.549,53.549,46,52.992,46z" data-original="#E3E9EC" class=""/>
	<g>
		<circle style="fill:#12D8B7" cx="36" cy="27" r="11" data-original="#95A5A5" class="" data-old_color="#DB8B28"/>
		<path style="fill:#BDC3C7;" d="M36,39c-6.617,0-12-5.383-12-12s5.383-12,12-12s12,5.383,12,12S42.617,39,36,39z M36,17    c-5.514,0-10,4.486-10,10s4.486,10,10,10s10-4.486,10-10S41.514,17,36,17z" data-original="#BDC3C7" class=""/>
	</g>
	<path style="fill:#BDC3C7;" d="M36,19c-0.553,0-1-0.447-1-1v-2c0-0.553,0.447-1,1-1s1,0.447,1,1v2C37,18.553,36.553,19,36,19z" data-original="#BDC3C7" class=""/>
	<path style="fill:#BDC3C7;" d="M36,39c-0.553,0-1-0.447-1-1v-2c0-0.553,0.447-1,1-1s1,0.447,1,1v2C37,38.553,36.553,39,36,39z" data-original="#BDC3C7" class=""/>
	<path style="fill:#BDC3C7;" d="M47,28h-2c-0.553,0-1-0.447-1-1s0.447-1,1-1h2c0.553,0,1,0.447,1,1S47.553,28,47,28z" data-original="#BDC3C7" class=""/>
	<path style="fill:#BDC3C7;" d="M27,28h-2c-0.553,0-1-0.447-1-1s0.447-1,1-1h2c0.553,0,1,0.447,1,1S27.553,28,27,28z" data-original="#BDC3C7" class=""/>
	<path style="fill:#BDC3C7;" d="M42.364,21.636c-0.256,0-0.512-0.098-0.707-0.293c-0.391-0.391-0.391-1.023,0-1.414l1.414-1.414   c0.391-0.391,1.023-0.391,1.414,0s0.391,1.023,0,1.414l-1.414,1.414C42.876,21.538,42.62,21.636,42.364,21.636z" data-original="#BDC3C7" class=""/>
	<path style="fill:#BDC3C7;" d="M28.222,35.778c-0.256,0-0.512-0.098-0.707-0.293c-0.391-0.391-0.391-1.023,0-1.414l1.414-1.414   c0.391-0.391,1.023-0.391,1.414,0s0.391,1.023,0,1.414l-1.414,1.414C28.733,35.681,28.478,35.778,28.222,35.778z" data-original="#BDC3C7" class=""/>
	<path style="fill:#BDC3C7;" d="M43.778,35.778c-0.256,0-0.512-0.098-0.707-0.293l-1.414-1.414c-0.391-0.391-0.391-1.023,0-1.414   s1.023-0.391,1.414,0l1.414,1.414c0.391,0.391,0.391,1.023,0,1.414C44.29,35.681,44.034,35.778,43.778,35.778z" data-original="#BDC3C7" class=""/>
	<path style="fill:#BDC3C7;" d="M29.636,21.636c-0.256,0-0.512-0.098-0.707-0.293l-1.414-1.414c-0.391-0.391-0.391-1.023,0-1.414   s1.023-0.391,1.414,0l1.414,1.414c0.391,0.391,0.391,1.023,0,1.414C30.147,21.538,29.892,21.636,29.636,21.636z" data-original="#BDC3C7" class=""/>
	<circle style="fill:#1C7566" cx="36" cy="27" r="3" data-original="#FFFFFF" class="" data-old_color="#1FCAAD"/>
	<g>
		<path style="fill:#B6C8CC" d="M15,17c-0.553,0-1,0.447-1,1v1c-0.553,0-1,0.447-1,1s0.447,1,1,1v14c-0.553,0-1,0.447-1,1    s0.447,1,1,1v1c0,0.553,0.447,1,1,1s1-0.447,1-1V18C16,17.447,15.553,17,15,17z" data-original="#B6C8CC" class="" data-old_color="#DB8B28"/>
		<path style="fill:#B6C8CC" d="M12,20c0-0.553-0.447-1-1-1v-1c0-0.553-0.447-1-1-1s-1,0.447-1,1v20c0,0.553,0.447,1,1,1    s1-0.447,1-1v-1c0.553,0,1-0.447,1-1s-0.447-1-1-1V21C11.553,21,12,20.553,12,20z" data-original="#B6C8CC" class="" data-old_color="#DB8B28"/>
	</g>
	<g>
		<path style="fill:#5E5F62" d="M52,14h3c0.553,0,1-0.447,1-1s-0.447-1-1-1h-3c-0.553,0-1,0.447-1,1S51.447,14,52,14z" data-original="#5E5F62" class="active-path" data-old_color="#FCB853"/>
		<path style="fill:#5E5F62" d="M55,15h-3c-0.553,0-1,0.447-1,1s0.447,1,1,1h3c0.553,0,1-0.447,1-1S55.553,15,55,15z" data-original="#5E5F62" class="active-path" data-old_color="#FCB853"/>
		<path style="fill:#5E5F62" d="M55,37h-3c-0.553,0-1,0.447-1,1s0.447,1,1,1h3c0.553,0,1-0.447,1-1S55.553,37,55,37z" data-original="#5E5F62" class="active-path" data-old_color="#FCB853"/>
		<path style="fill:#5E5F62" d="M55,40h-3c-0.553,0-1,0.447-1,1s0.447,1,1,1h3c0.553,0,1-0.447,1-1S55.553,40,55,40z" data-original="#5E5F62" class="active-path" data-old_color="#FCB853"/>
	</g>
</g></g> </svg>
